<?xml version="1.0" standalone="no"?>
<!DOCTYPE svg PUBLIC "-//W3C//DTD SVG 20010904//EN"
 "http://www.w3.org/TR/2001/REC-SVG-20010904/DTD/svg10.dtd">
<svg version="1.0" xmlns="http://www.w3.org/2000/svg"
 width="376.000000pt" height="376.000000pt" viewBox="0 0 376.000000 376.000000"
 preserveAspectRatio="xMidYMid meet">
<metadata>
Created by potrace 1.14, written by Peter Selinger 2001-2017
</metadata>
<g transform="translate(0.000000,376.000000) scale(0.100000,-0.100000)"
fill="#000000" stroke="none">
<path d="M1729 3756 c-2 -2 -31 -6 -64 -9 -50 -5 -140 -21 -230 -41 -107 -23
-268 -82 -395 -146 -333 -165 -602 -420 -790 -745 -28 -48 -50 -88 -50 -90 0
-2 -15 -36 -34 -77 -47 -102 -79 -195 -109 -318 -45 -181 -52 -244 -51 -455 0
-164 3 -207 23 -325 28 -170 127 -450 196 -561 14 -21 25 -41 25 -44 0 -3 24
-42 53 -88 93 -143 218 -287 341 -392 26 -22 61 -52 78 -68 17 -15 35 -27 39
-27 4 0 14 -6 21 -13 15 -14 120 -85 158 -106 203 -113 419 -190 635 -226 17
-3 44 -8 60 -11 52 -10 377 -12 445 -3 36 5 83 12 105 15 117 16 316 74 435
126 347 152 624 385 832 698 62 94 156 275 174 335 2 6 15 42 29 80 38 100 75
261 92 395 10 74 10 347 1 438 -10 99 -53 286 -89 391 -61 174 -219 464 -303
554 -14 15 -26 30 -26 33 0 14 -240 254 -254 254 -3 0 -17 11 -31 24 -33 31
-156 115 -220 151 -225 127 -407 189 -695 240 -38 7 -395 16 -401 11z"/>
</g>
</svg>
