<?xml version="1.0" encoding="UTF-8" standalone="no"?>
<!-- Created with Inkscape (http://www.inkscape.org/) -->

<svg
   xmlns:dc="http://purl.org/dc/elements/1.1/"
   xmlns:cc="http://creativecommons.org/ns#"
   xmlns:rdf="http://www.w3.org/1999/02/22-rdf-syntax-ns#"
   xmlns:svg="http://www.w3.org/2000/svg"
   xmlns="http://www.w3.org/2000/svg"
   xmlns:sodipodi="http://sodipodi.sourceforge.net/DTD/sodipodi-0.dtd"
   xmlns:inkscape="http://www.inkscape.org/namespaces/inkscape"
   width="32"
   height="32"
   viewBox="0 0 8.4666665 8.4666669"
   version="1.1"
   id="svg8"
   inkscape:version="0.92.3 (2405546, 2018-03-11)"
   sodipodi:docname="changeStyle.svg">
  <defs
     id="defs2" />
  <sodipodi:namedview
     id="base"
     pagecolor="#343434"
     bordercolor="#666666"
     borderopacity="1.0"
     inkscape:pageopacity="0"
     inkscape:pageshadow="2"
     inkscape:zoom="3.6203867"
     inkscape:cx="-47.240143"
     inkscape:cy="22.146354"
     inkscape:document-units="px"
     inkscape:current-layer="layer1"
     showgrid="true"
     units="px"
     inkscape:window-width="1920"
     inkscape:window-height="1012"
     inkscape:window-x="0"
     inkscape:window-y="0"
     inkscape:window-maximized="1">
    <inkscape:grid
       type="xygrid"
       id="grid815"
       units="px"
       spacingx="0.26458333"
       spacingy="0.26458333"
       empspacing="4"
       color="#4f4fff"
       opacity="0.1254902"
       empcolor="#8e8eff"
       empopacity="0.25098039" />
  </sodipodi:namedview>
  <metadata
     id="metadata5">
    <rdf:RDF>
      <cc:Work
         rdf:about="">
        <dc:format>image/svg+xml</dc:format>
        <dc:type
           rdf:resource="http://purl.org/dc/dcmitype/StillImage" />
        <dc:title></dc:title>
      </cc:Work>
    </rdf:RDF>
  </metadata>
  <g
     inkscape:label="Layer 1"
     inkscape:groupmode="layer"
     id="layer1"
     transform="translate(0,-288.53332)">
    <g
       aria-label="a"
       style="font-style:normal;font-variant:normal;font-weight:bold;font-stretch:normal;font-size:2.64583325px;line-height:125%;font-family:Raleway;-inkscape-font-specification:'Raleway Bold';text-align:start;letter-spacing:0px;word-spacing:0px;text-anchor:start;fill:#ffffff;fill-opacity:1;stroke:none;stroke-width:0.26458332px;stroke-linecap:butt;stroke-linejoin:miter;stroke-opacity:1"
       id="text884">
      <path
         d="m 0.73234075,290.94788 q 0.0903111,-0.18062 0.21448889,-0.33867 0.13546666,-0.15804 0.46284446,-0.47413 0.3386667,-0.31609 0.6096,-0.48542 0.2822222,-0.16934 0.4176889,-0.18063 0.1354666,-0.0113 0.2257778,0.0452 0.1919111,0.12418 0.1128888,0.37253 0.079022,-0.0564 0.1467556,-0.1016 0.067733,-0.0564 0.1693333,-0.0677 0.1128889,-0.0226 0.1919111,0.0564 0.079022,0.0677 0.056445,0.2032 -0.1128889,0.41769 -0.2370667,0.75636 -0.1128889,0.33867 -0.067733,0.55316 0.045155,0.21448 0.3273778,0.27093 0.2822222,0.0451 0.9821333,-0.11289 0.1128889,-0.0113 0.1806222,0.0452 0.067733,0.0564 0.079022,0.13546 0.011289,0.079 -0.045156,0.15805 -0.045156,0.079 -0.2032,0.12417 -0.4064,0.1016 -0.8128,0.1016 -0.3951111,0.0113 -0.6096,-0.11288 -0.2032,-0.11289 -0.2935111,-0.3048 -0.1354667,-0.3048 0.033867,-0.93698 -0.1693333,0.16933 -0.4064,0.42898 -0.2370666,0.25964 -0.3386666,0.36124 -0.1016,0.0903 -0.1919111,0.16933 -0.079022,0.0677 -0.2822223,0.12418 -0.1919111,0.0565 -0.3838222,0.0452 -0.18062221,-0.0113 -0.31608888,-0.12418 -0.13546666,-0.11289 -0.12417777,-0.31609 0.0112889,-0.21449 0.1016,-0.39511 z m 1.54657775,-0.68862 q -0.1241777,-0.0113 -0.1919111,-0.1016 -0.2822222,0.22577 -0.5870222,0.51929 -0.3048,0.28222 -0.4064,0.63217 0.4515555,0.12418 1.0385778,-0.68862 0.1580444,-0.22578 0.3273778,-0.4064 -0.067733,0.0226 -0.1806223,0.0452 z"
         style="font-style:normal;font-variant:normal;font-weight:normal;font-stretch:normal;font-size:11.28888893px;font-family:Karumbi;-inkscape-font-specification:Karumbi;fill:#ffffff;fill-opacity:1;stroke-width:0.26458332px"
         id="path892" />
    </g>
    <g
       aria-label="a"
       style="font-style:normal;font-variant:normal;font-weight:bold;font-stretch:normal;font-size:2.64583325px;line-height:125%;font-family:Raleway;-inkscape-font-specification:'Raleway Bold';text-align:start;letter-spacing:0px;word-spacing:0px;text-anchor:start;fill:#ffffff;fill-opacity:1;stroke:none;stroke-width:0.26458332px;stroke-linecap:butt;stroke-linejoin:miter;stroke-opacity:1"
       id="text888">
      <path
         d="m 6.1481234,296.25792 q -0.3309056,0 -0.5482167,-0.19262 -0.2173111,-0.19262 -0.2173111,-0.59761 0,-0.39511 0.2765777,-0.58279 0.2815167,-0.18767 0.849489,-0.20743 l 0.4099278,-0.0148 v -0.29633 q 0,-0.1778 -0.029633,-0.31115 -0.029633,-0.13829 -0.1284111,-0.21731 -0.098778,-0.079 -0.3012722,-0.079 -0.1876778,0 -0.2864556,0.0691 -0.098778,0.0691 -0.13335,0.19262 -0.029633,0.12347 -0.029633,0.27658 -0.2074334,0 -0.3160889,-0.0692 -0.1037167,-0.0741 -0.1037167,-0.242 0,-0.16793 0.1185333,-0.27164 0.1234723,-0.10866 0.3210278,-0.15311 0.2024945,-0.0494 0.4494389,-0.0494 0.4543778,0 0.6766278,0.19262 0.2271889,0.19262 0.2271889,0.66181 v 1.27917 q 0,0.20744 0.069145,0.28152 0.069144,0.0741 0.2370666,0.0741 h 0.014817 v 0.20744 h -0.66675 l -0.079022,-0.42475 h -0.039511 q -0.1037167,0.13829 -0.2024945,0.24695 -0.098778,0.10371 -0.2321278,0.16792 -0.13335,0.0593 -0.3358444,0.0593 z m 0.1135944,-0.30622 q 0.3012722,0 0.4790722,-0.18273 0.1778001,-0.18768 0.1778001,-0.50377 v -0.40005 l -0.3160889,0.0148 q -0.4198056,0.0197 -0.582789,0.17286 -0.1580444,0.14816 -0.1580444,0.43956 0,0.45931 0.40005,0.45931 z"
         style="font-style:normal;font-variant:normal;font-weight:normal;font-stretch:normal;font-size:4.93888903px;font-family:'Noto Serif';-inkscape-font-specification:'Noto Serif';fill:#ffffff;fill-opacity:1;stroke-width:0.26458332px"
         id="path895" />
    </g>
    <path
       style="color:#000000;clip-rule:nonzero;display:inline;overflow:visible;visibility:visible;opacity:1;isolation:auto;mix-blend-mode:normal;color-interpolation:sRGB;color-interpolation-filters:linearRGB;solid-color:#000000;solid-opacity:1;fill:#ffffff;fill-opacity:1;fill-rule:nonzero;stroke:#ffffff;stroke-width:0.26458332;stroke-linecap:round;stroke-linejoin:round;stroke-miterlimit:4;stroke-dasharray:none;stroke-dashoffset:0;stroke-opacity:1;marker:none;color-rendering:auto;image-rendering:auto;shape-rendering:auto;text-rendering:auto;enable-background:accumulate"
       d="M 1.5874999,295.94165 7.4083332,290.3854"
       id="path890"
       inkscape:connector-curvature="0" />
  </g>
</svg>
